<?xml version="1.0" standalone="no"?>
<!DOCTYPE svg PUBLIC "-//W3C//DTD SVG 20010904//EN"
 "http://www.w3.org/TR/2001/REC-SVG-20010904/DTD/svg10.dtd">
<svg version="1.0" xmlns="http://www.w3.org/2000/svg"
 width="500.000000pt" height="500.000000pt" viewBox="0 0 500.000000 500.000000"
 preserveAspectRatio="xMidYMid meet">
<metadata>
Created by potrace 1.14, written by Peter Selinger 2001-2017
</metadata>
<g transform="translate(0.000000,500.000000) scale(0.100000,-0.100000)"
fill="#000000" stroke="none">
<path d="M2130 4491 c-104 -15 -185 -41 -285 -90 -164 -82 -295 -205 -330
-312 -11 -31 -34 -67 -60 -95 -83 -85 -131 -243 -141 -464 -7 -143 9 -274 53
-432 l27 -98 37 6 c38 6 69 -5 106 -39 19 -17 25 -18 38 -7 13 11 24 4 73 -46
32 -32 82 -79 111 -103 l53 -45 -7 45 c-5 24 -8 54 -9 66 0 12 -3 20 -7 17 -4
-2 -7 15 -7 38 -1 22 -5 45 -11 51 -5 5 -7 16 -4 23 3 8 1 14 -3 14 -5 0 -9
12 -10 28 -1 39 -13 132 -19 142 -2 4 6 40 19 81 13 41 33 133 46 204 20 123
43 189 77 227 13 15 26 10 166 -58 156 -76 308 -131 432 -155 44 -9 136 -14
245 -14 194 1 253 12 425 78 l90 36 7 -37 c3 -20 8 -63 10 -94 l4 -57 -34 21
c-28 17 -43 19 -92 14 -121 -14 -210 -51 -210 -87 0 -31 27 -34 124 -10 96 22
152 26 175 12 9 -6 0 -11 -30 -16 -70 -11 -229 -53 -289 -76 -125 -47 -167
-51 -385 -31 -133 12 -255 8 -415 -13 l-45 -5 45 22 c39 19 67 23 208 28 147
4 165 7 178 25 20 27 13 38 -32 48 -45 10 -251 1 -305 -13 -41 -11 -117 -63
-126 -86 -3 -9 0 -20 7 -24 9 -6 -12 -16 -61 -30 -114 -33 -119 -36 -119 -69
0 -63 12 -93 46 -113 38 -22 41 -33 18 -60 -35 -38 -27 -158 11 -158 17 0 49
-45 41 -58 -9 -14 -52 -20 -71 -10 -19 11 -43 -5 -56 -39 -5 -13 -13 -23 -18
-23 -11 0 -93 88 -167 181 -31 38 -57 69 -59 69 -1 0 0 -22 3 -50 2 -27 1 -50
-3 -50 -9 0 -55 52 -55 62 0 3 -19 20 -42 37 -53 39 -121 45 -116 10 2 -16 23
-30 82 -57 44 -19 88 -44 97 -56 22 -27 34 -85 20 -99 -14 -14 -14 -28 0 -25
6 2 24 -27 39 -65 l28 -68 -29 -14 c-15 -8 -30 -15 -32 -15 -2 0 -28 38 -56
85 -29 47 -54 85 -56 85 -7 0 31 -87 54 -123 35 -57 15 -58 -37 -2 -25 28 -40
41 -34 30 32 -59 101 -110 140 -102 24 4 34 -4 92 -75 36 -45 100 -117 142
-162 43 -44 78 -84 78 -88 0 -5 -8 -8 -17 -8 -9 0 -42 -7 -73 -16 l-57 -16 23
-23 c13 -13 24 -33 24 -43 0 -24 37 -58 74 -66 17 -4 44 -22 61 -41 63 -67
249 -172 349 -198 31 -9 67 -23 79 -31 12 -9 31 -22 42 -30 19 -13 187 -33
330 -38 54 -2 63 0 87 25 15 15 38 27 51 27 14 0 47 15 73 33 27 19 72 41 99
50 28 10 81 35 119 57 37 22 70 40 73 40 2 0 -8 -17 -23 -37 -27 -38 -97 -99
-168 -147 -28 -19 -40 -34 -41 -54 l-2 -29 61 41 c119 78 174 133 210 210 29
62 32 73 20 87 -8 8 -14 25 -14 36 0 11 -11 37 -25 57 l-25 37 30 40 c16 22
37 64 46 92 9 28 28 76 42 107 34 76 60 190 68 299 4 50 11 94 15 97 5 3 9 19
9 35 0 16 11 47 24 68 36 56 46 104 46 216 0 81 4 109 20 140 21 42 24 63 14
115 -8 37 -8 37 -95 45 l-66 6 1 142 c1 113 -4 161 -21 237 -12 52 -27 124
-33 160 -44 250 -328 497 -677 586 -84 22 -125 26 -288 29 -104 2 -215 0 -245
-4z m410 -130 c188 -49 264 -85 339 -160 56 -56 87 -103 97 -146 20 -79 -14
-209 -63 -248 -71 -57 -152 -77 -303 -77 -156 0 -370 45 -510 108 -81 36 -264
184 -308 248 -48 71 -52 85 -37 113 38 74 173 148 320 177 108 21 357 13 465
-15z m753 -1108 c-7 -2 -19 -2 -25 0 -7 3 -2 5 12 5 14 0 19 -2 13 -5z m118
-23 c26 -35 43 -163 34 -254 -8 -92 -36 -134 -114 -173 -62 -31 -191 -44 -239
-24 -34 14 -79 61 -110 114 -27 46 -28 60 -4 53 9 -3 53 0 97 7 93 14 110 32
101 105 -3 23 -3 42 1 42 10 0 77 -43 95 -60 10 -11 13 -22 7 -31 -17 -28 -8
-53 33 -91 32 -30 37 -38 22 -38 -16 0 -16 -2 -4 -10 24 -15 85 3 74 22 -4 6
-8 29 -10 51 -1 23 -7 43 -13 45 -6 2 -11 20 -10 40 0 36 1 36 11 12 10 -23
12 -22 20 29 12 65 4 112 -22 136 -25 22 -27 58 -4 53 9 -2 25 -14 35 -28z
m-196 10 c-11 -5 -38 -8 -60 -8 -34 0 -36 1 -15 8 14 4 41 8 60 8 28 1 31 -1
15 -8z m-108 -16 c-3 -3 -12 -4 -19 -1 -8 3 -5 6 6 6 11 1 17 -2 13 -5z m-50
-10 c-3 -3 -12 -4 -19 -1 -8 3 -5 6 6 6 11 1 17 -2 13 -5z m-754 -71 c-7 -2
-21 -2 -30 0 -10 3 -4 5 12 5 17 0 24 -2 18 -5z m-128 -22 c-90 -27 -111 -37
-129 -63 -20 -28 -21 -16 -1 22 17 32 82 58 150 58 39 1 38 0 -20 -17z m823
-34 c4 -20 -25 -34 -40 -19 -15 15 -1 44 19 40 10 -2 19 -11 21 -21z m-539
-72 c16 -15 35 -41 42 -59 14 -40 41 -39 76 3 l23 26 0 -35 c-1 -60 -20 -122
-56 -181 -45 -74 -90 -98 -206 -106 -172 -12 -261 45 -287 183 -9 45 -9 46 33
75 l41 30 12 -28 c7 -15 12 -33 13 -39 0 -17 92 -26 181 -18 73 6 78 8 89 35
12 29 10 89 -4 122 -12 25 7 21 43 -8z m-219 -26 c-12 -22 -21 -24 -38 -7 -10
10 -7 15 10 24 29 16 41 8 28 -17z m566 -20 c13 -10 64 -106 64 -120 0 -5 -24
-10 -52 -10 -34 -1 -42 -4 -23 -6 35 -5 57 -21 49 -35 -3 -5 13 -16 35 -26 77
-32 63 -67 -39 -99 -30 -10 -58 -22 -62 -28 -4 -5 -8 -7 -8 -3 0 3 -30 -5 -67
-18 -38 -13 -75 -24 -83 -24 -8 0 -27 -6 -41 -14 -14 -7 -37 -16 -52 -20 -45
-11 -33 20 33 85 33 32 60 63 60 67 0 5 12 15 26 22 33 18 72 90 49 90 -19 0
-19 9 1 76 22 75 64 99 110 63z"/>
<path d="M1362 2895 c0 -16 2 -22 5 -12 2 9 2 23 0 30 -3 6 -5 -1 -5 -18z"/>
<path d="M1361 2824 c0 -11 3 -14 6 -6 3 7 2 16 -1 19 -3 4 -6 -2 -5 -13z"/>
<path d="M1653 1969 c-10 -39 -10 -41 39 -99 75 -89 171 -142 432 -240 70 -27
139 -59 152 -71 13 -12 24 -18 24 -12 0 6 -7 16 -15 23 -8 7 -15 25 -15 39 0
25 -5 28 -72 46 -252 64 -453 184 -510 305 l-24 50 -11 -41z"/>
<path d="M3358 1854 c7 -39 -25 -109 -68 -148 -40 -36 -137 -89 -222 -121 -27
-10 -48 -21 -48 -26 0 -12 40 4 186 78 94 47 135 73 143 90 16 35 26 139 14
146 -6 4 -8 -4 -5 -19z"/>
<path d="M1570 1825 c0 -13 110 -157 130 -170 18 -12 319 -95 340 -94 8 0 -1
5 -20 10 -200 54 -295 102 -382 190 -38 38 -68 67 -68 64z"/>
<path d="M1331 1654 c0 -11 3 -14 6 -6 3 7 2 16 -1 19 -3 4 -6 -2 -5 -13z"/>
<path d="M3597 1614 c3 -27 7 -51 9 -53 8 -9 3 75 -5 88 -5 8 -7 -5 -4 -35z"/>
<path d="M2885 1591 c-94 -58 -135 -71 -135 -43 0 10 5 23 12 30 14 14 -39 16
-139 6 -53 -6 -60 -9 -56 -25 4 -15 0 -19 -19 -19 -13 0 -28 4 -34 9 -5 5 -40
19 -78 31 -55 18 -70 20 -76 9 -17 -26 11 -48 88 -72 79 -26 65 -35 -25 -18
-31 6 -40 5 -37 -4 5 -13 57 -25 112 -25 30 0 34 -5 58 -57 45 -102 67 -182
53 -199 -9 -11 -10 -48 -6 -135 5 -98 11 -130 29 -167 23 -47 23 -49 23 -472
l0 -425 45 3 c25 2 47 6 50 9 3 2 5 199 5 436 1 314 4 440 13 460 22 52 10
287 -14 287 -24 0 -23 131 2 216 14 50 16 52 57 58 23 4 65 15 94 24 l51 17 4
58 c2 31 3 57 3 57 0 0 -36 -22 -80 -49z m65 -30 c0 -7 -103 -52 -118 -51 -9
1 100 59 111 60 4 0 7 -4 7 -9z m-230 -273 c0 -13 -23 -5 -28 10 -2 7 2 10 12
6 9 -3 16 -11 16 -16z m-93 -215 c-2 -27 -3 -5 -3 47 0 52 1 74 3 48 2 -27 2
-69 0 -95z m120 85 c-3 -8 -6 -5 -6 6 -1 11 2 17 5 13 3 -3 4 -12 1 -19z m-59
-4 c6 3 13 2 17 -4 4 -6 11 -8 16 -5 5 4 9 0 9 -8 0 -8 7 -17 15 -21 8 -3 15
-12 15 -21 0 -22 -43 -19 -65 5 -10 11 -24 20 -30 20 -8 0 -10 10 -7 26 3 17
7 22 12 14 4 -7 12 -10 18 -6z m-45 -183 c4 -29 2 -40 -4 -30 -8 13 -14 88 -5
78 2 -2 6 -24 9 -48z m70 -58 c-7 -2 -19 -2 -25 0 -7 3 -2 5 12 5 14 0 19 -2
13 -5z"/>
<path d="M3640 1617 c0 -32 58 -149 89 -182 22 -22 57 -77 80 -122 38 -78 89
-143 110 -143 5 0 66 -56 136 -125 149 -147 135 -124 -41 70 -148 163 -179
204 -286 374 -81 129 -88 139 -88 128z"/>
<path d="M1214 1538 c-152 -224 -265 -367 -447 -563 l-120 -130 104 105 c192
194 272 290 434 525 49 71 88 135 82 135 -2 0 -26 -33 -53 -72z"/>
<path d="M2068 1553 c6 -2 18 -2 25 0 6 3 1 5 -13 5 -14 0 -19 -2 -12 -5z"/>
<path d="M2110 1546 c0 -3 45 -15 100 -27 78 -17 101 -26 106 -41 3 -11 8 -18
10 -15 9 9 -18 65 -30 61 -6 -2 -48 2 -91 11 -87 16 -95 17 -95 11z"/>
<path d="M3601 1515 c-2 -39 -23 -122 -51 -209 -26 -80 -76 -137 -152 -174
-67 -33 -123 -95 -149 -166 -20 -52 -23 -80 -23 -196 0 -120 32 -629 40 -639
1 -1 29 6 61 16 57 19 58 20 61 62 2 23 -11 168 -28 323 -29 256 -32 348 -12
348 4 0 25 -23 47 -51 98 -127 170 -202 222 -231 60 -34 61 -38 26 -133 -18
-50 -53 -176 -53 -192 0 -7 3 -13 8 -13 22 1 35 26 53 105 10 49 28 107 39
130 19 39 24 43 69 49 27 4 94 20 148 36 80 24 104 36 131 64 64 71 35 102
-100 109 -108 6 -119 8 -113 18 3 4 -1 9 -9 12 -10 4 -13 23 -10 75 l3 70 -27
-7 c-15 -4 -34 -4 -42 -1 -8 4 -27 13 -41 20 -18 8 -30 25 -39 54 -15 50 -27
66 -51 66 -17 0 -19 8 -19 60 0 47 -3 60 -15 60 -8 0 -36 -27 -62 -60 -25 -33
-47 -60 -48 -60 -2 0 12 28 31 63 52 98 120 337 111 393 l-4 29 -2 -30z"/>
<path d="M2331 1434 c0 -11 3 -14 6 -6 3 7 2 16 -1 19 -3 4 -6 -2 -5 -13z"/>
<path d="M2361 1324 c0 -11 3 -14 6 -6 3 7 2 16 -1 19 -3 4 -6 -2 -5 -13z"/>
<path d="M2381 1174 c0 -11 3 -14 6 -6 3 7 2 16 -1 19 -3 4 -6 -2 -5 -13z"/>
<path d="M1500 1158 c0 -4 11 -37 25 -74 30 -80 30 -84 5 -77 -24 6 -70 -31
-70 -57 0 -9 -19 -37 -42 -61 -24 -25 -59 -63 -78 -85 -19 -22 -58 -58 -85
-82 -28 -23 -62 -60 -75 -83 -29 -50 -92 -113 -130 -131 l-28 -13 64 -48 c34
-26 70 -47 79 -47 25 0 171 146 274 275 112 140 109 138 140 155 22 11 23 11
16 -6 -4 -11 -9 -41 -11 -69 -2 -27 -9 -102 -15 -165 -20 -228 -28 -303 -35
-353 -4 -23 -2 -37 5 -37 6 0 11 5 11 12 0 47 35 301 52 378 16 71 30 107 56
143 18 26 38 47 43 47 13 0 39 68 39 104 0 50 -41 100 -90 110 -33 6 -85 59
-121 121 -16 27 -29 47 -29 43z"/>
<path d="M2961 1094 c1 -21 5 -52 9 -69 5 -19 6 -6 3 35 -6 73 -14 94 -12 34z"/>
<path d="M2982 960 c0 -14 2 -19 5 -12 2 6 2 18 0 25 -3 6 -5 1 -5 -13z"/>
<path d="M2990 921 c0 -6 4 -13 10 -16 6 -3 7 1 4 9 -7 18 -14 21 -14 7z"/>
<path d="M4190 890 c6 -11 13 -20 16 -20 2 0 0 9 -6 20 -6 11 -13 20 -16 20
-2 0 0 -9 6 -20z"/>
<path d="M4226 827 c3 -10 9 -15 12 -12 3 3 0 11 -7 18 -10 9 -11 8 -5 -6z"/>
<path d="M4245 778 c4 -13 11 -27 16 -33 5 -5 4 5 -2 23 -12 36 -24 44 -14 10z"/>
</g>
</svg>
