<?xml version="1.0" standalone="no"?>
<!DOCTYPE svg PUBLIC "-//W3C//DTD SVG 20010904//EN"
 "http://www.w3.org/TR/2001/REC-SVG-20010904/DTD/svg10.dtd">
<svg version="1.0" xmlns="http://www.w3.org/2000/svg"
 width="1280.000000pt" height="1280.000000pt" viewBox="0 0 1280.000000 1280.000000"
 preserveAspectRatio="xMidYMid meet">
<metadata>
Created by potrace 1.14, written by Peter Selinger 2001-2017
</metadata>
<g transform="translate(0.000000,1280.000000) scale(0.100000,-0.100000)"
fill="#000000" stroke="none">
<path d="M5525 11189 c-60 -5 -146 -13 -190 -19 -44 -6 -111 -16 -150 -21
-101 -14 -377 -76 -465 -104 -191 -62 -230 -76 -300 -105 -147 -63 -206 -93
-369 -192 -91 -55 -168 -103 -171 -106 -3 -4 -37 -28 -76 -55 -39 -26 -82 -57
-95 -68 -13 -12 -44 -37 -69 -57 -78 -63 -273 -264 -331 -342 -132 -177 -208
-353 -229 -527 -7 -56 -18 -107 -24 -113 -7 -5 -44 -25 -82 -45 -39 -19 -89
-54 -111 -78 -115 -123 -246 -372 -304 -582 -97 -349 -113 -477 -114 -925 0
-646 46 -902 238 -1300 46 -96 112 -243 146 -326 l63 -150 79 -38 c57 -27 86
-47 102 -72 23 -35 42 -43 50 -21 4 9 7 9 18 -1 7 -6 21 -12 30 -12 32 0 66
-44 102 -128 56 -132 117 -230 193 -311 40 -42 75 -73 78 -70 4 3 -1 62 -9
130 -9 68 -20 160 -26 204 -5 44 -23 166 -39 270 -16 105 -35 222 -41 260 -11
71 -10 75 30 305 5 30 23 118 40 195 66 305 123 624 151 850 45 362 78 501
159 668 38 79 65 119 114 170 67 69 101 83 127 52 7 -8 16 -12 21 -9 9 5 32
-11 118 -83 21 -18 45 -33 53 -33 16 0 60 -24 168 -91 78 -49 217 -120 227
-117 5 2 29 -12 56 -30 26 -18 78 -47 115 -64 37 -17 74 -37 82 -43 8 -7 38
-20 66 -29 29 -9 60 -26 69 -36 10 -11 28 -20 39 -20 12 0 38 -11 58 -25 20
-14 46 -25 56 -25 11 0 25 -6 31 -14 6 -8 26 -16 44 -19 45 -7 115 -26 135
-36 9 -5 35 -13 57 -19 22 -6 67 -20 100 -32 78 -28 328 -72 481 -85 23 -2 59
-8 80 -14 22 -7 152 -17 289 -23 305 -14 360 -14 500 -5 61 4 148 10 195 13
76 5 211 19 280 30 14 2 72 8 130 14 135 14 162 18 239 41 35 10 76 19 91 19
16 0 32 5 35 10 3 6 17 10 31 10 14 0 38 7 54 15 16 8 56 21 90 29 34 8 67 19
73 24 7 5 32 12 57 16 25 4 73 22 108 40 34 19 70 32 80 29 11 -2 75 24 147
61 70 36 135 66 144 66 9 0 27 9 41 20 14 11 32 20 41 20 9 0 24 9 34 20 10
11 31 20 47 20 16 0 44 11 61 24 18 14 44 28 60 31 15 4 27 11 27 16 0 5 7 9
15 9 9 0 33 11 54 25 31 19 41 22 50 11 23 -27 105 -379 146 -621 9 -55 21
-120 26 -145 5 -25 13 -110 19 -190 6 -80 13 -152 16 -161 5 -18 7 -18 -296
-53 -234 -28 -490 -73 -735 -130 -55 -13 -124 -27 -154 -30 -29 -4 -79 -13
-110 -21 -61 -15 -105 -14 -137 3 -11 6 -29 9 -40 8 -10 -2 -34 4 -52 12 -23
11 -35 13 -43 5 -13 -13 -86 7 -99 27 -5 8 -13 11 -17 6 -4 -5 -2 -11 5 -13 6
-3 12 -10 12 -16 1 -17 43 -63 84 -91 26 -17 32 -26 23 -33 -6 -5 -95 -38
-197 -73 -102 -35 -210 -74 -240 -87 -67 -30 -242 -60 -415 -74 -186 -14 -202
-14 -280 -1 -38 6 -160 20 -270 31 -658 66 -939 66 -1560 2 -251 -26 -499 -80
-761 -166 -126 -41 -209 -64 -280 -75 -158 -26 -174 -40 -174 -152 0 -108 19
-294 35 -338 13 -36 39 -59 155 -134 51 -33 70 -53 90 -93 30 -59 54 -155 75
-297 19 -128 66 -311 105 -412 24 -61 31 -99 35 -169 3 -80 18 -184 44 -325
20 -108 70 -423 81 -510 6 -52 14 -103 16 -112 4 -12 0 -18 -10 -18 -9 0 -16
8 -16 19 0 11 -11 66 -24 123 -13 56 -32 157 -41 223 -53 391 -84 534 -123
580 -9 12 -31 29 -49 40 -29 17 -33 17 -56 2 -15 -10 -28 -32 -36 -61 -13 -54
-14 -215 -1 -271 5 -22 12 -74 16 -115 3 -41 8 -78 10 -82 3 -4 0 -9 -6 -13
-5 -3 -11 0 -11 7 -5 62 -11 85 -24 94 -8 6 -15 20 -15 31 0 11 -9 28 -20 38
-14 12 -20 31 -20 58 0 28 -7 48 -23 65 -15 17 -18 26 -9 29 25 9 11 39 -27
55 -32 14 -38 21 -34 38 3 11 -1 27 -8 36 -7 9 -18 24 -24 34 -5 9 -19 30 -30
45 -11 16 -20 45 -20 66 l0 38 -20 -19 c-12 -11 -24 -20 -27 -20 -3 0 -5 29
-4 64 1 55 -1 63 -13 53 -12 -10 -13 -8 -9 10 4 16 2 20 -8 16 -11 -4 -13 2
-8 24 4 21 0 33 -15 47 -14 13 -21 31 -21 56 0 26 -20 73 -72 168 -88 163
-109 162 -72 -3 19 -89 32 -203 29 -280 -1 -35 4 -68 12 -80 7 -11 13 -33 13
-50 0 -16 9 -64 21 -105 23 -88 45 -183 59 -260 5 -30 14 -70 19 -88 12 -40 4
-94 -16 -105 -22 -13 -15 -27 15 -27 57 0 87 -40 256 -340 55 -96 122 -213
151 -260 28 -47 54 -92 58 -100 3 -8 42 -71 86 -140 129 -202 170 -272 216
-375 79 -174 134 -250 345 -470 259 -271 382 -371 575 -468 220 -111 723 -244
1044 -277 155 -15 699 -12 870 5 388 40 729 131 1086 293 258 117 402 208 593
377 229 203 311 337 446 730 19 55 59 155 90 223 94 208 156 427 200 712 40
264 48 343 55 558 l6 204 62 54 c34 30 79 81 101 112 164 242 212 443 212 899
0 340 10 382 115 531 51 72 54 89 31 237 -29 188 -39 227 -60 240 -12 7 -72
15 -141 19 -66 3 -154 11 -195 16 -41 6 -102 14 -135 18 l-60 7 1 35 c0 19 6
64 13 100 39 210 44 261 45 495 1 304 -26 531 -94 790 -10 39 -30 114 -44 167
-17 65 -26 124 -26 175 0 222 -172 654 -369 932 -158 220 -439 497 -686 673
-117 83 -335 218 -425 264 -184 92 -293 144 -331 157 -24 9 -89 32 -144 52
-55 20 -140 47 -190 60 -49 13 -124 32 -165 43 -94 25 -320 69 -425 82 -44 6
-111 15 -150 20 -208 28 -713 38 -960 19z m530 -199 c251 -14 303 -18 360 -29
28 -6 99 -15 160 -21 60 -6 112 -15 115 -20 3 -5 48 -15 100 -24 123 -20 167
-30 213 -50 21 -9 47 -14 57 -11 10 3 21 1 25 -5 3 -5 19 -10 35 -10 29 0 71
-15 141 -51 20 -11 50 -19 67 -19 17 0 32 -6 36 -15 3 -8 15 -15 26 -15 12 0
34 -7 49 -15 16 -8 57 -24 92 -36 35 -12 66 -25 69 -29 3 -4 46 -26 95 -51 50
-24 92 -47 95 -50 8 -8 95 -49 106 -49 6 0 29 -17 52 -37 70 -64 119 -103 127
-103 19 0 183 -132 215 -173 12 -15 29 -27 38 -27 9 0 27 -15 39 -33 12 -17
49 -59 81 -92 33 -33 70 -81 82 -105 13 -25 38 -63 56 -86 19 -23 34 -46 34
-53 0 -7 11 -33 25 -59 14 -26 25 -53 25 -60 0 -14 18 -48 39 -74 12 -16 12
-20 -2 -36 -10 -10 -17 -28 -17 -39 0 -12 -5 -23 -11 -25 -5 -2 -13 -22 -16
-45 -3 -23 -14 -50 -24 -59 -11 -9 -19 -25 -19 -34 0 -10 -6 -22 -13 -28 -7
-6 -14 -28 -15 -48 -3 -46 -8 -53 -39 -65 -20 -7 -24 -14 -19 -32 4 -18 -5
-34 -39 -70 -25 -25 -45 -51 -45 -57 0 -5 -5 -10 -12 -10 -18 0 -48 -31 -48
-50 0 -10 -13 -23 -30 -30 -16 -7 -30 -16 -30 -21 0 -5 -5 -9 -12 -9 -7 0 -23
-11 -37 -24 -31 -29 -175 -108 -311 -169 -76 -35 -311 -115 -400 -137 -94 -24
-227 -50 -297 -60 -188 -26 -303 -40 -368 -45 -38 -3 -117 -10 -175 -15 -156
-14 -500 -12 -705 5 -260 22 -502 61 -710 115 -60 16 -175 45 -255 65 -157 39
-162 40 -295 84 -221 73 -495 218 -618 328 -20 18 -43 33 -50 33 -7 0 -24 12
-38 28 -28 31 -203 174 -257 211 -21 14 -41 30 -47 36 -5 7 -26 21 -45 33 -57
35 -168 155 -192 208 -27 61 -30 203 -5 274 31 90 97 208 132 235 19 14 34 29
32 33 -1 5 15 23 35 41 20 18 40 41 43 52 4 10 12 19 19 19 7 0 21 10 32 21
10 12 53 49 94 81 41 33 79 66 83 74 4 8 22 21 40 29 34 15 47 23 112 65 22
14 51 32 65 38 14 7 48 26 75 43 28 16 66 37 85 45 19 9 64 30 99 46 60 28
200 82 246 95 11 3 26 10 33 16 12 10 78 28 187 51 287 62 324 68 590 91 99 8
185 17 190 19 18 8 167 6 350 -4z m-3078 -1921 c30 -19 95 -91 133 -149 8 -13
25 -35 37 -49 12 -15 23 -42 25 -61 2 -27 9 -36 28 -41 15 -4 18 -7 8 -8 -10
-1 -22 -10 -28 -22 -9 -16 -8 -24 4 -38 28 -31 16 -141 -15 -141 -12 0 -19 7
-19 18 0 24 -31 84 -64 122 -14 17 -26 35 -26 39 0 4 -18 28 -41 52 -66 70
-96 132 -104 210 -10 95 0 106 62 68z m6316 -2260 c26 -5 66 -13 90 -17 82
-16 144 -81 171 -183 8 -30 21 -70 29 -89 33 -76 70 -461 61 -635 -11 -239
-40 -379 -97 -473 -120 -201 -293 -319 -577 -395 -345 -93 -595 -90 -775 9
-85 47 -227 186 -289 283 -135 211 -312 636 -291 700 3 11 1 22 -5 26 -5 3
-10 27 -10 53 0 34 3 43 11 35 7 -7 12 -30 12 -52 0 -47 0 -46 31 -26 l23 15
6 -64 c7 -76 35 -159 75 -224 l29 -47 124 -3 c179 -5 443 32 509 70 24 14 59
22 113 25 113 6 122 11 142 80 21 71 24 208 6 281 -7 29 -11 55 -8 58 12 12
292 -129 341 -171 35 -31 40 -31 66 -3 42 45 22 86 -60 124 -8 4 -41 25 -72
47 -31 21 -98 58 -148 82 -50 24 -86 46 -81 50 6 3 16 3 23 -1 7 -5 25 -7 40
-6 14 1 30 -3 33 -8 4 -6 16 -8 26 -5 11 4 26 2 33 -4 7 -6 38 -13 69 -15 35
-3 68 -13 86 -25 16 -12 50 -30 76 -41 29 -12 70 -44 102 -78 73 -76 96 -126
178 -382 15 -47 36 -93 46 -103 19 -17 20 -17 27 0 4 10 7 59 6 109 0 91 -1
92 -35 125 -30 30 -37 44 -48 112 -8 53 -9 82 -2 90 15 19 31 136 25 177 -5
32 -3 37 20 48 15 6 29 20 33 29 4 10 20 36 37 58 48 62 56 82 50 115 -4 16
-10 30 -14 30 -17 0 -63 -66 -93 -134 l-32 -71 -7 40 c-12 68 -30 238 -32 290
-1 54 4 51 -66 41 -39 -5 -52 -40 -44 -121 9 -105 11 -177 4 -204 -6 -23 -6
-23 -55 18 -28 23 -60 51 -71 62 -12 10 -26 19 -31 19 -6 0 -18 9 -28 20 -10
11 -24 20 -32 20 -7 0 -31 11 -53 25 -22 14 -50 25 -62 25 -13 1 -41 9 -63 20
-22 11 -52 19 -67 20 -16 0 -28 4 -28 9 0 5 42 12 93 15 102 8 140 25 135 59
-3 20 -8 22 -58 20 -173 -6 -447 -43 -495 -67 -16 -8 -61 -20 -99 -26 -107
-17 -169 -34 -345 -95 -165 -57 -269 -110 -325 -167 -31 -32 -44 -31 -27 1 21
39 145 127 226 160 167 69 343 120 541 157 415 77 748 109 877 83z m-3228
-447 c87 -19 161 -48 235 -93 47 -28 58 -39 38 -39 -9 0 -20 5 -23 10 -18 29
-128 57 -250 64 -44 3 -139 10 -212 15 -90 7 -150 7 -190 0 -32 -6 -137 -10
-233 -10 -147 1 -190 -2 -260 -19 -93 -23 -97 -24 -220 -46 -47 -8 -123 -31
-170 -50 -47 -20 -103 -43 -125 -51 -22 -8 -49 -20 -60 -26 -11 -6 -29 -15
-40 -21 -62 -34 -170 -113 -221 -165 -82 -81 -99 -135 -78 -241 20 -104 26
-130 28 -130 9 0 81 42 98 58 20 18 117 100 158 134 15 12 66 38 75 38 3 0 5
-7 5 -16 0 -8 -21 -37 -47 -63 -74 -72 -121 -144 -122 -183 -1 -22 4 -28 19
-28 11 0 20 4 20 9 0 5 35 30 78 56 42 26 103 65 135 86 32 21 62 39 66 39 5
0 15 -37 24 -82 9 -46 31 -112 49 -148 l33 -65 210 -8 c119 -5 260 -5 326 0
114 9 118 10 169 48 67 49 83 51 124 20 41 -31 80 -32 101 -2 32 45 55 146 55
241 0 98 -15 169 -50 241 -12 26 -20 49 -17 52 9 8 77 -17 143 -53 84 -46 158
-130 208 -234 l40 -85 7 34 c10 49 -10 135 -48 209 -34 65 -35 73 -8 45 9 -9
20 -12 23 -7 7 9 123 9 205 1 44 -4 55 6 66 64 7 33 9 3 10 -115 1 -184 -19
-328 -74 -523 -74 -264 -188 -475 -312 -579 -58 -49 -203 -129 -258 -143 -22
-5 -65 -17 -95 -25 -178 -51 -584 -68 -763 -32 -230 46 -355 114 -467 253
-121 151 -173 298 -229 658 -24 152 -43 412 -37 492 15 180 123 289 337 337
164 38 389 69 674 95 55 5 249 8 430 6 283 -3 343 -6 420 -23z m1996 -109 c34
-90 -59 -179 -145 -138 -35 17 -63 63 -53 89 5 13 147 75 175 76 7 0 17 -12
23 -27z m-2856 -344 c12 -35 -4 -84 -36 -115 -24 -23 -39 -29 -73 -28 -46 1
-110 37 -103 58 3 12 174 105 194 106 6 0 15 -9 18 -21z m1928 -20 c91 -46
187 -139 187 -183 0 -8 7 -16 15 -20 8 -3 15 -11 15 -18 0 -7 12 -35 25 -63
14 -27 25 -55 25 -61 0 -6 9 -19 19 -28 11 -10 29 -44 41 -77 13 -33 27 -62
31 -65 5 -3 19 -24 30 -46 20 -39 20 -42 4 -54 -9 -7 -15 -17 -14 -22 5 -12
145 -132 154 -132 4 0 49 -42 99 -92 50 -51 123 -121 161 -155 70 -62 208
-153 232 -153 7 0 34 -7 60 -16 41 -14 70 -36 135 -102 7 -7 23 -24 36 -37 29
-29 323 -129 333 -113 4 6 15 8 25 4 18 -7 18 -8 1 -21 -15 -11 -16 -13 -2
-19 20 -7 19 -25 -2 -33 -21 -7 -99 -40 -128 -53 -43 -21 -155 -50 -250 -66
-66 -11 -107 -23 -121 -35 -14 -13 -35 -19 -70 -19 -27 0 -62 -7 -78 -15 -15
-8 -39 -15 -52 -15 -13 0 -40 -9 -59 -20 -20 -11 -51 -22 -70 -25 -37 -4 -76
-23 -88 -42 -4 -7 -18 -13 -29 -13 -12 0 -32 -10 -45 -22 -12 -11 -40 -24 -60
-27 -34 -6 -38 -10 -35 -34 2 -17 -3 -29 -13 -33 -31 -12 -1 -24 62 -24 44 0
69 -5 77 -14 13 -16 132 -30 141 -16 3 6 21 10 40 10 18 0 35 5 37 11 2 6 30
11 63 11 33 0 65 5 72 10 8 6 32 5 69 -2 46 -10 61 -9 82 2 20 10 26 10 29 1
6 -16 199 -18 208 -3 11 18 52 11 68 -12 13 -20 18 -21 36 -10 11 6 34 12 51
12 17 0 39 6 50 12 15 10 24 10 39 1 10 -6 22 -8 27 -4 5 5 21 11 37 15 22 5
27 3 27 -13 0 -11 -4 -23 -10 -26 -5 -3 -10 -14 -10 -23 1 -16 2 -16 14 1 17
22 29 22 50 -2 30 -33 13 -58 -45 -66 -47 -7 -51 -9 -46 -31 3 -19 -3 -26 -31
-40 -19 -9 -37 -24 -39 -34 -3 -10 -25 -26 -49 -35 -25 -9 -55 -28 -68 -42
-13 -14 -34 -31 -47 -38 -51 -30 -166 -84 -209 -99 -25 -9 -60 -29 -78 -46
-18 -16 -39 -30 -46 -30 -20 0 -123 -47 -131 -59 -3 -6 -15 -11 -26 -11 -11 0
-37 -11 -57 -25 -20 -14 -44 -25 -53 -25 -10 0 -47 -14 -84 -30 -37 -17 -76
-30 -87 -30 -11 0 -26 -7 -34 -15 -9 -8 -26 -15 -40 -15 -13 0 -43 -9 -67 -19
-23 -11 -63 -22 -90 -26 -26 -3 -59 -10 -73 -15 -14 -6 -38 -10 -53 -10 -15 0
-32 -5 -38 -11 -6 -6 -39 -13 -74 -15 -35 -3 -73 -11 -84 -18 -11 -7 -63 -16
-115 -21 -52 -4 -122 -10 -155 -13 -121 -12 -539 -7 -640 7 -55 7 -120 15
-145 17 -25 2 -94 10 -155 18 -124 17 -255 32 -395 47 -52 6 -124 14 -160 19
-119 16 -334 42 -380 46 -107 10 -197 28 -219 46 -13 10 -41 21 -62 24 -21 4
-46 16 -58 30 -12 13 -25 24 -29 24 -5 0 -14 11 -20 25 -7 14 -20 29 -29 32
-21 8 -43 28 -43 39 0 4 -9 18 -21 30 -12 13 -22 39 -24 65 -2 24 -9 59 -16
76 -19 47 -5 55 108 64 133 11 133 11 88 19 -27 5 0 7 80 7 315 -2 535 3 535
13 0 7 26 10 70 8 48 -1 74 2 87 13 43 34 66 42 77 27 7 -9 22 -12 41 -8 23 4
31 12 36 37 6 30 4 33 -25 39 -17 4 -38 7 -47 5 -9 -1 -36 5 -60 13 -57 19
-161 36 -225 36 -64 0 -117 17 -110 36 3 9 -2 14 -14 14 -10 0 -21 4 -24 9 -3
5 -36 7 -73 5 -59 -3 -63 -2 -33 7 19 5 87 19 150 29 335 56 391 69 470 115
14 8 53 27 88 42 34 15 62 31 62 36 0 5 11 22 25 39 13 16 30 46 36 68 9 30
21 43 48 56 20 10 69 37 109 61 41 23 76 43 79 43 2 0 36 28 75 63 73 64 173
197 247 327 34 59 60 89 122 139 43 36 79 68 79 72 0 4 6 14 14 21 7 8 23 33
35 56 l21 41 -63 3 c-55 3 -62 5 -61 23 1 17 62 257 118 468 9 31 27 79 41
106 20 40 34 54 79 76 30 15 60 33 66 40 19 22 144 19 193 -6z m2457 -532 c0
-8 -10 -25 -21 -38 -23 -25 -22 -22 0 24 16 30 21 34 21 14z m-6100 -310 c0
-5 -4 -5 -10 -2 -5 3 -10 14 -10 23 0 15 2 15 10 2 5 -8 10 -19 10 -23z m2403
-494 c-7 -2 -19 -2 -25 0 -7 3 -2 5 12 5 14 0 19 -2 13 -5z m-103 -33 c-30
-11 -65 -20 -78 -20 -13 0 -31 -4 -40 -9 -9 -5 -51 -11 -92 -14 -83 -7 -76 -4
55 20 50 9 108 22 130 29 63 21 86 15 25 -6z m-993 -16 c-3 -3 -12 -4 -19 -1
-8 3 -5 6 6 6 11 1 17 -2 13 -5z m88 -19 l50 -15 -55 6 c-30 3 -59 10 -64 15
-14 13 11 11 69 -6z m428 -32 c-46 -2 -120 -2 -165 0 -46 1 -9 3 82 3 91 0
128 -2 83 -3z m-1446 -235 c-3 -7 -5 -2 -5 12 0 14 2 19 5 13 2 -7 2 -19 0
-25z m4113 -267 c0 -10 -99 -25 -108 -16 -3 3 7 5 21 5 15 0 27 5 27 10 0 6
14 10 30 10 17 0 30 -4 30 -9z m-3790 -166 c0 -19 -2 -35 -4 -35 -2 0 -6 16
-8 35 -2 19 0 35 4 35 4 0 8 -16 8 -35z m4670 11 c0 -3 -4 -8 -10 -11 -5 -3
-10 -1 -10 4 0 6 5 11 10 11 6 0 10 -2 10 -4z m-140 -707 c0 -22 -5 -29 -19
-29 -16 0 -19 -5 -15 -27 3 -16 9 -29 14 -31 15 -5 -42 -62 -62 -62 -10 0 -18
-7 -18 -17 0 -19 -28 -53 -44 -53 -7 0 -18 -10 -26 -21 -19 -28 -120 -74 -190
-88 -138 -27 -154 -32 -162 -44 -6 -9 -8 -9 -8 1 0 7 -14 12 -35 12 -25 0 -33
-4 -29 -14 6 -15 -23 -26 -68 -26 -15 0 -30 -4 -33 -10 -3 -5 -16 -10 -29 -10
-12 0 -27 -5 -34 -12 -8 -8 -15 -8 -27 2 -12 10 -15 10 -15 -4 0 -12 -9 -16
-35 -16 -19 0 -43 -4 -53 -9 -92 -46 -106 -51 -113 -40 -5 9 -13 7 -30 -5 -13
-9 -36 -16 -52 -16 -16 0 -42 -9 -58 -21 -17 -12 -39 -19 -49 -16 -11 3 -23 1
-26 -4 -3 -5 -21 -9 -41 -9 -20 0 -44 -7 -54 -16 -11 -10 -23 -13 -31 -8 -15
10 -48 6 -63 -6 -5 -4 -36 -11 -68 -15 -31 -4 -59 -11 -62 -15 -5 -9 -100 -26
-125 -23 -8 1 -51 -2 -95 -8 -44 -5 -156 -12 -250 -14 -93 -2 -298 -8 -455
-15 -157 -6 -307 -9 -335 -6 -106 11 -243 34 -261 43 -10 6 -24 9 -29 6 -15
-5 -266 82 -318 110 -23 12 -46 28 -50 35 -4 6 -16 12 -25 12 -16 0 -152 120
-152 134 0 4 4 5 9 1 5 -3 12 -1 15 4 3 5 -3 11 -13 14 -40 10 -34 122 6 115
14 -2 19 5 21 30 4 35 30 44 52 17 10 -12 16 -13 28 -3 14 12 136 13 155 1 5
-3 88 -7 184 -9 112 -2 180 -7 189 -15 7 -6 91 -22 186 -35 95 -12 193 -28
218 -34 167 -39 295 -50 565 -49 149 1 289 2 313 2 23 0 42 3 42 7 0 5 18 6
41 3 24 -4 50 -1 64 7 14 7 37 10 54 7 23 -5 31 -3 31 8 0 12 28 14 169 13 92
0 173 2 178 5 6 4 47 5 92 4 71 -2 84 1 96 17 10 13 22 17 39 14 15 -3 31 1
37 8 7 9 32 14 64 14 39 0 56 5 70 20 10 11 27 20 38 20 11 0 25 7 31 16 7 8
32 18 56 20 25 3 54 9 65 14 11 4 28 11 37 14 11 3 15 11 12 21 -5 12 1 15 28
15 19 0 43 7 54 15 10 8 36 15 57 15 20 0 37 5 37 10 0 6 9 10 19 10 11 0 21
5 23 12 7 19 78 34 176 35 l92 2 0 -30z"/>
<path d="M7561 3984 c0 -11 3 -14 6 -6 3 7 2 16 -1 19 -3 4 -6 -2 -5 -13z"/>
<path d="M7480 3950 c0 -5 7 -10 15 -10 8 0 15 5 15 10 0 6 -7 10 -15 10 -8 0
-15 -4 -15 -10z"/>
<path d="M4230 6996 c0 -8 5 -18 10 -21 16 -10 12 -28 -5 -21 -16 6 -21 -19
-6 -29 15 -9 30 27 24 58 -6 28 -23 38 -23 13z"/>
<path d="M2723 5764 c-7 -20 26 -65 63 -84 120 -62 174 -101 261 -186 53 -52
100 -94 105 -94 17 0 -61 125 -124 199 -66 77 -160 150 -217 170 -47 15 -81
14 -88 -5z"/>
<path d="M3183 4943 c-27 -5 -29 -16 -8 -33 18 -15 40 -8 55 19 11 22 5 24
-47 14z"/>
<path d="M3368 4395 c-10 -11 4 -46 17 -41 7 2 18 -1 25 -7 9 -9 11 -5 8 18
-2 21 -9 31 -23 33 -12 2 -24 0 -27 -3z"/>
<path d="M10857 534 c-8 -8 1 -24 14 -24 5 0 9 7 9 15 0 15 -12 20 -23 9z"/>
<path d="M11000 525 c0 -8 7 -15 15 -15 8 0 15 7 15 15 0 8 -7 15 -15 15 -8 0
-15 -7 -15 -15z"/>
<path d="M10912 465 c27 -40 36 -40 61 3 l19 32 -51 0 -51 0 22 -35z"/>
<path d="M11190 400 c0 -89 0 -90 24 -90 19 0 25 6 28 27 4 37 20 38 40 3 16
-28 21 -30 73 -30 40 0 57 4 61 15 4 9 19 15 35 15 19 0 29 -5 29 -15 0 -9 9
-15 25 -15 30 0 30 5 7 62 -11 24 -22 60 -26 81 -6 32 -10 37 -35 37 -24 0
-31 -6 -44 -42 -8 -24 -18 -54 -21 -68 -3 -14 -11 -33 -19 -44 -13 -18 -16
-16 -45 28 -30 44 -31 47 -14 65 9 10 23 27 30 39 11 21 10 22 -18 22 -20 0
-33 -6 -37 -17 -3 -10 -14 -26 -25 -36 -17 -17 -18 -17 -18 18 0 31 -3 35 -25
35 -25 0 -25 -1 -25 -90z m262 5 c3 -16 1 -25 -7 -25 -8 0 -10 9 -7 25 2 14 6
25 7 25 1 0 5 -11 7 -25z"/>
<path d="M11550 400 c0 -89 0 -90 25 -90 20 0 25 5 25 25 0 16 6 25 16 25 9 0
29 8 45 17 21 13 29 25 29 46 0 55 -15 67 -80 67 l-60 0 0 -90z m85 25 c0 -11
-8 -21 -17 -23 -14 -3 -18 3 -18 23 0 20 4 26 18 23 9 -2 17 -12 17 -23z"/>
<path d="M11693 483 c17 -33 47 -105 47 -112 0 -6 5 -22 12 -36 16 -37 51 -33
70 8 l15 32 7 -32 c6 -26 13 -33 32 -33 20 0 29 9 45 48 12 26 27 66 34 90
l13 42 -28 0 c-27 0 -29 -4 -36 -47 -9 -66 -18 -82 -32 -57 -8 15 -6 30 8 62
l19 42 -29 0 c-26 0 -30 -4 -31 -27 l-1 -28 -11 28 c-8 19 -18 27 -34 27 -19
0 -22 -3 -15 -17 15 -29 22 -82 13 -88 -5 -3 -17 20 -26 50 -16 50 -20 55 -47
55 -16 0 -27 -3 -25 -7z"/>
<path d="M11990 395 c0 -95 0 -95 25 -95 25 0 25 0 25 95 0 95 0 95 -25 95
-25 0 -25 0 -25 -95z"/>
<path d="M12070 395 c0 -95 0 -95 25 -95 23 0 25 4 25 45 0 25 5 45 10 45 6 0
10 -4 10 -9 0 -18 64 -81 82 -81 16 0 18 10 18 95 0 94 0 95 -24 95 -23 0 -25
-5 -28 -47 l-3 -48 -34 48 c-24 32 -42 47 -58 47 -22 0 -23 -2 -23 -95z"/>
<path d="M12288 473 c-28 -33 -40 -65 -33 -91 14 -56 66 -89 112 -71 19 7 29
7 31 0 2 -6 12 -11 23 -11 16 0 19 7 19 50 l0 50 -40 0 c-29 0 -40 -4 -40 -15
0 -8 7 -15 16 -15 8 0 12 -4 9 -10 -11 -18 -54 -11 -69 13 -30 45 6 87 58 67
31 -11 50 2 41 29 -5 18 -14 21 -59 21 -38 0 -57 -5 -68 -17z"/>
</g>
</svg>
